<svg width="120" height="49" viewBox="0 0 120 49" fill="none" xmlns="http://www.w3.org/2000/svg">
<rect width="120" height="49" rx="6" fill="#35AFBF"/>
<path d="M35.168 19.28C36.1173 19.28 36.9387 19.4613 37.632 19.824C38.3253 20.176 38.912 20.6987 39.392 21.392L38.24 22.496C37.8347 21.8773 37.376 21.4347 36.864 21.168C36.3627 20.8907 35.7653 20.752 35.072 20.752C34.2933 20.752 33.728 20.9013 33.376 21.2C33.024 21.4987 32.848 21.8613 32.848 22.288C32.848 22.6187 32.96 22.9067 33.184 23.152C33.4187 23.3973 33.8507 23.5893 34.48 23.728L36.624 24.208C37.6373 24.4427 38.3573 24.7893 38.784 25.248C39.2213 25.696 39.44 26.272 39.44 26.976C39.44 27.6267 39.264 28.192 38.912 28.672C38.56 29.1413 38.0693 29.5093 37.44 29.776C36.8107 30.032 36.08 30.16 35.248 30.16C34.128 30.16 33.1733 29.952 32.384 29.536C31.5947 29.1093 30.9867 28.5813 30.56 27.952L31.744 26.768C32.0747 27.3333 32.5387 27.7973 33.136 28.16C33.744 28.512 34.464 28.688 35.296 28.688C36.032 28.688 36.608 28.56 37.024 28.304C37.4507 28.0373 37.664 27.6587 37.664 27.168C37.664 26.8693 37.5573 26.6027 37.344 26.368C37.1413 26.1227 36.7573 25.936 36.192 25.808L33.872 25.28C32.912 25.0773 32.2027 24.7413 31.744 24.272C31.2853 23.8027 31.056 23.216 31.056 22.512C31.056 21.9147 31.2213 21.3707 31.552 20.88C31.8827 20.3893 32.352 20 32.96 19.712C33.5787 19.424 34.3147 19.28 35.168 19.28ZM42.3951 20.656C42.0218 20.656 41.7338 20.5653 41.5311 20.384C41.3391 20.192 41.2431 19.9253 41.2431 19.584C41.2431 19.2427 41.3391 18.9813 41.5311 18.8C41.7338 18.6187 42.0218 18.528 42.3951 18.528C42.7578 18.528 43.0351 18.6187 43.2271 18.8C43.4298 18.9813 43.5311 19.2427 43.5311 19.584C43.5311 19.9253 43.4298 20.192 43.2271 20.384C43.0351 20.5653 42.7578 20.656 42.3951 20.656ZM43.2431 22V30H41.5311V22H43.2431ZM50.4338 28.752C51.2444 28.752 51.8738 28.9333 52.3218 29.296C52.7698 29.648 52.9938 30.1387 52.9938 30.768C52.9938 31.3333 52.8178 31.8133 52.4658 32.208C52.1138 32.6133 51.6338 32.9173 51.0258 33.12C50.4178 33.3333 49.7298 33.44 48.9618 33.44C47.6391 33.44 46.6631 33.2373 46.0338 32.832C45.4151 32.4267 45.1058 31.92 45.1058 31.312C45.1058 30.9493 45.2124 30.624 45.4258 30.336C45.6391 30.048 45.9911 29.8507 46.4818 29.744C46.1831 29.616 45.9484 29.44 45.7778 29.216C45.6071 28.9813 45.5218 28.6827 45.5218 28.32C45.5218 27.968 45.6231 27.6587 45.8258 27.392C46.0284 27.1147 46.3271 26.9067 46.7218 26.768C45.8791 26.288 45.4578 25.5467 45.4578 24.544C45.4578 23.7333 45.7724 23.0827 46.4018 22.592C47.0311 22.0907 47.8631 21.84 48.8978 21.84C49.5698 21.84 50.1618 21.9467 50.6738 22.16C50.7591 21.6267 50.9938 21.1893 51.3778 20.848C51.7618 20.496 52.2471 20.32 52.8338 20.32C52.8871 20.32 52.9298 20.32 52.9618 20.32L53.2338 21.664C53.1804 21.6533 53.1164 21.648 53.0417 21.648C52.1244 21.648 51.6124 21.984 51.5058 22.656C52.0711 23.1467 52.3538 23.776 52.3538 24.544C52.3538 25.3653 52.0391 26.0213 51.4098 26.512C50.7804 27.0027 49.9431 27.248 48.8978 27.248C48.4604 27.248 48.0604 27.2107 47.6978 27.136C47.4098 27.2107 47.2018 27.328 47.0738 27.488C46.9564 27.6373 46.8978 27.7973 46.8978 27.968C46.8978 28.4907 47.2764 28.752 48.0338 28.752H50.4338ZM48.8978 23.04C48.4071 23.04 47.9964 23.1787 47.6658 23.456C47.3458 23.7227 47.1858 24.0853 47.1858 24.544C47.1858 25.0027 47.3458 25.3707 47.6658 25.648C47.9964 25.9253 48.4071 26.064 48.8978 26.064C49.3991 26.064 49.8098 25.9253 50.1298 25.648C50.4604 25.3707 50.6258 25.0027 50.6258 24.544C50.6258 24.0853 50.4604 23.7227 50.1298 23.456C49.8098 23.1787 49.3991 23.04 48.8978 23.04ZM48.9618 32.16C49.8364 32.16 50.4818 32.0427 50.8978 31.808C51.3244 31.5733 51.5378 31.296 51.5378 30.976C51.5378 30.7307 51.4364 30.5333 51.2338 30.384C51.0418 30.2347 50.6898 30.16 50.1778 30.16H47.6018C47.2924 30.16 47.0364 30.24 46.8338 30.4C46.6418 30.56 46.5458 30.768 46.5458 31.024C46.5458 31.376 46.7591 31.6533 47.1858 31.856C47.6124 32.0587 48.2044 32.16 48.9618 32.16ZM54.5624 30V22H56.0824L56.1624 23.376C56.429 22.8427 56.797 22.4533 57.2664 22.208C57.7464 21.9627 58.2797 21.84 58.8664 21.84C59.4317 21.84 59.9384 21.952 60.3864 22.176C60.845 22.3893 61.2077 22.72 61.4744 23.168C61.741 23.6053 61.8744 24.1547 61.8744 24.816V30H60.1624V25.344C60.1624 24.5547 59.997 24.0107 59.6664 23.712C59.3464 23.4027 58.941 23.248 58.4504 23.248C58.0984 23.248 57.757 23.328 57.4264 23.488C57.0957 23.648 56.8184 23.9147 56.5944 24.288C56.381 24.6507 56.2744 25.136 56.2744 25.744V30H54.5624ZM78.3278 19.44V25.952C78.3278 27.3493 77.9598 28.4 77.2238 29.104C76.4878 29.808 75.4158 30.16 74.0078 30.16C72.6211 30.16 71.5544 29.808 70.8078 29.104C70.0718 28.4 69.7038 27.3493 69.7038 25.952V19.44H71.4158V25.744C71.4158 26.7467 71.6238 27.488 72.0398 27.968C72.4664 28.4373 73.1224 28.672 74.0078 28.672C74.9038 28.672 75.5598 28.4373 75.9758 27.968C76.4024 27.488 76.6158 26.7467 76.6158 25.744V19.44H78.3278ZM80.953 33.36V22H82.473L82.553 23.504C82.7877 23.0027 83.145 22.6027 83.625 22.304C84.105 21.9947 84.6597 21.84 85.289 21.84C85.9397 21.84 86.5263 22.0053 87.049 22.336C87.5823 22.6667 88.0037 23.1413 88.313 23.76C88.633 24.3787 88.793 25.12 88.793 25.984C88.793 26.8587 88.633 27.6107 88.313 28.24C87.993 28.8587 87.561 29.3333 87.017 29.664C86.4837 29.9947 85.8917 30.16 85.241 30.16C84.6437 30.16 84.1263 30.0267 83.689 29.76C83.2517 29.4827 82.9103 29.1253 82.665 28.688V33.36H80.953ZM84.873 28.768C85.5557 28.768 86.0943 28.5227 86.489 28.032C86.8837 27.5413 87.081 26.864 87.081 26C87.081 25.136 86.889 24.4587 86.505 23.968C86.121 23.4667 85.5877 23.216 84.905 23.216C84.233 23.216 83.689 23.4667 83.273 23.968C82.8677 24.4693 82.665 25.1467 82.665 26C82.665 26.8427 82.8623 27.5147 83.257 28.016C83.6623 28.5173 84.201 28.768 84.873 28.768Z" fill="white"/>
</svg>
