<svg width="190" height="62" viewBox="0 0 190 62" fill="none" xmlns="http://www.w3.org/2000/svg">
<rect width="190" height="62" rx="6" fill="#35AFBF"/>
<path d="M42.686 38.21C41.384 38.21 40.25 37.923 39.284 37.349C38.332 36.775 37.59 35.956 37.058 34.892C36.54 33.828 36.281 32.554 36.281 31.07C36.281 29.6 36.561 28.333 37.121 27.269C37.681 26.205 38.458 25.386 39.452 24.812C40.46 24.224 41.629 23.93 42.959 23.93C44.401 23.93 45.563 24.203 46.445 24.749C47.341 25.281 48.055 26.1 48.587 27.206L46.508 28.193C46.242 27.423 45.801 26.849 45.185 26.471C44.583 26.079 43.848 25.883 42.98 25.883C41.678 25.883 40.628 26.338 39.83 27.248C39.032 28.158 38.633 29.432 38.633 31.07C38.633 32.736 38.997 34.024 39.725 34.934C40.467 35.83 41.552 36.278 42.98 36.278C44.016 36.278 44.891 36.019 45.605 35.501C46.319 34.969 46.676 34.164 46.676 33.086V32.687H42.644V30.86H48.671V38H46.991L46.907 36.173C46.501 36.831 45.941 37.335 45.227 37.685C44.527 38.035 43.68 38.21 42.686 38.21ZM56.5593 38.21C55.5093 38.21 54.5853 37.993 53.7873 37.559C53.0033 37.125 52.3873 36.502 51.9393 35.69C51.4913 34.864 51.2673 33.884 51.2673 32.75C51.2673 31.616 51.4843 30.643 51.9183 29.831C52.3663 29.005 52.9753 28.375 53.7453 27.941C54.5293 27.507 55.4253 27.29 56.4333 27.29C57.4553 27.29 58.3233 27.5 59.0373 27.92C59.7513 28.34 60.2973 28.914 60.6753 29.642C61.0533 30.37 61.2423 31.196 61.2423 32.12C61.2423 32.386 61.2353 32.631 61.2213 32.855C61.2073 33.079 61.1863 33.268 61.1583 33.422H53.4723C53.5703 34.402 53.8853 35.151 54.4173 35.669C54.9633 36.173 55.6633 36.425 56.5173 36.425C57.2173 36.425 57.7843 36.292 58.2183 36.026C58.6523 35.76 58.9953 35.389 59.2473 34.913L61.0323 35.753C60.6683 36.523 60.0873 37.125 59.2893 37.559C58.5053 37.993 57.5953 38.21 56.5593 38.21ZM56.3913 29.075C55.6213 29.075 54.9843 29.299 54.4803 29.747C53.9903 30.195 53.6753 30.846 53.5353 31.7H59.0583C59.0023 30.86 58.7363 30.216 58.2603 29.768C57.7843 29.306 57.1613 29.075 56.3913 29.075ZM70.5118 27.5V29.264H66.8998V34.85C66.8998 35.354 67.0398 35.732 67.3198 35.984C67.5998 36.222 67.9638 36.341 68.4118 36.341C68.8038 36.341 69.1328 36.285 69.3988 36.173C69.6788 36.047 69.9378 35.879 70.1758 35.669L70.6798 37.307C70.3578 37.587 69.9588 37.811 69.4828 37.979C69.0208 38.133 68.5028 38.21 67.9288 38.21C67.0048 38.21 66.2278 37.986 65.5978 37.538C64.9678 37.076 64.6528 36.306 64.6528 35.228V29.264H62.6368V27.5H64.6528V25.043L66.8998 24.413V27.5H70.5118ZM84.6033 23.93C85.8493 23.93 86.9273 24.168 87.8373 24.644C88.7473 25.106 89.5173 25.792 90.1473 26.702L88.6353 28.151C88.1033 27.339 87.5013 26.758 86.8293 26.408C86.1713 26.044 85.3873 25.862 84.4773 25.862C83.4553 25.862 82.7133 26.058 82.2513 26.45C81.7893 26.842 81.5583 27.318 81.5583 27.878C81.5583 28.312 81.7053 28.69 81.9993 29.012C82.3073 29.334 82.8743 29.586 83.7003 29.768L86.5143 30.398C87.8443 30.706 88.7893 31.161 89.3493 31.763C89.9233 32.351 90.2103 33.107 90.2103 34.031C90.2103 34.885 89.9793 35.627 89.5173 36.257C89.0553 36.873 88.4113 37.356 87.5853 37.706C86.7593 38.042 85.8003 38.21 84.7083 38.21C83.2383 38.21 81.9853 37.937 80.9493 37.391C79.9133 36.831 79.1153 36.138 78.5553 35.312L80.1093 33.758C80.5433 34.5 81.1523 35.109 81.9363 35.585C82.7343 36.047 83.6793 36.278 84.7713 36.278C85.7373 36.278 86.4933 36.11 87.0393 35.774C87.5993 35.424 87.8793 34.927 87.8793 34.283C87.8793 33.891 87.7393 33.541 87.4593 33.233C87.1933 32.911 86.6893 32.666 85.9473 32.498L82.9023 31.805C81.6423 31.539 80.7113 31.098 80.1093 30.482C79.5073 29.866 79.2063 29.096 79.2063 28.172C79.2063 27.388 79.4233 26.674 79.8573 26.03C80.2913 25.386 80.9073 24.875 81.7053 24.497C82.5173 24.119 83.4833 23.93 84.6033 23.93ZM99.7149 27.5V29.264H96.1029V34.85C96.1029 35.354 96.2429 35.732 96.5229 35.984C96.8029 36.222 97.1669 36.341 97.6149 36.341C98.0069 36.341 98.3359 36.285 98.6019 36.173C98.8819 36.047 99.1409 35.879 99.3789 35.669L99.8829 37.307C99.5609 37.587 99.1619 37.811 98.6859 37.979C98.2239 38.133 97.7059 38.21 97.1319 38.21C96.2079 38.21 95.4309 37.986 94.8009 37.538C94.1709 37.076 93.8559 36.306 93.8559 35.228V29.264H91.8399V27.5H93.8559V25.043L96.1029 24.413V27.5H99.7149ZM108.068 31.259C108.068 30.559 107.872 30.02 107.48 29.642C107.102 29.25 106.577 29.054 105.905 29.054C105.275 29.054 104.729 29.201 104.267 29.495C103.819 29.789 103.497 30.265 103.301 30.923L101.411 30.125C101.677 29.271 102.195 28.585 102.965 28.067C103.749 27.549 104.757 27.29 105.989 27.29C106.815 27.29 107.55 27.43 108.194 27.71C108.852 27.976 109.363 28.389 109.727 28.949C110.105 29.495 110.294 30.188 110.294 31.028V35.711C110.294 36.229 110.553 36.488 111.071 36.488C111.323 36.488 111.568 36.453 111.806 36.383L111.68 37.937C111.358 38.091 110.952 38.168 110.462 38.168C109.902 38.168 109.419 38.042 109.013 37.79C108.607 37.538 108.334 37.16 108.194 36.656C107.858 37.174 107.375 37.566 106.745 37.832C106.115 38.084 105.485 38.21 104.855 38.21C103.861 38.21 103.035 37.972 102.377 37.496C101.719 37.02 101.39 36.306 101.39 35.354C101.39 34.584 101.642 33.947 102.146 33.443C102.664 32.939 103.392 32.589 104.33 32.393L108.068 31.658V31.259ZM103.658 35.186C103.658 35.578 103.805 35.893 104.099 36.131C104.407 36.355 104.813 36.467 105.317 36.467C105.793 36.467 106.241 36.39 106.661 36.236C107.081 36.082 107.417 35.83 107.669 35.48C107.935 35.13 108.068 34.675 108.068 34.115V33.233L105.422 33.779C104.82 33.891 104.372 34.052 104.078 34.262C103.798 34.472 103.658 34.78 103.658 35.186ZM113.975 38V27.5H115.886L116.096 29.39C116.67 27.99 117.769 27.29 119.393 27.29C119.603 27.29 119.813 27.311 120.023 27.353C120.233 27.381 120.408 27.43 120.548 27.5L120.233 29.474C120.079 29.418 119.904 29.376 119.708 29.348C119.526 29.306 119.274 29.285 118.952 29.285C118.504 29.285 118.07 29.404 117.65 29.642C117.244 29.866 116.901 30.216 116.621 30.692C116.355 31.154 116.222 31.735 116.222 32.435V38H113.975ZM128.816 27.5V29.264H125.204V34.85C125.204 35.354 125.344 35.732 125.624 35.984C125.904 36.222 126.268 36.341 126.716 36.341C127.108 36.341 127.437 36.285 127.703 36.173C127.983 36.047 128.242 35.879 128.48 35.669L128.984 37.307C128.662 37.587 128.263 37.811 127.787 37.979C127.325 38.133 126.807 38.21 126.233 38.21C125.309 38.21 124.532 37.986 123.902 37.538C123.272 37.076 122.957 36.306 122.957 35.228V29.264H120.941V27.5H122.957V25.043L125.204 24.413V27.5H128.816ZM135.658 38.21C134.608 38.21 133.684 37.993 132.886 37.559C132.102 37.125 131.486 36.502 131.038 35.69C130.59 34.864 130.366 33.884 130.366 32.75C130.366 31.616 130.583 30.643 131.017 29.831C131.465 29.005 132.074 28.375 132.844 27.941C133.628 27.507 134.524 27.29 135.532 27.29C136.554 27.29 137.422 27.5 138.136 27.92C138.85 28.34 139.396 28.914 139.774 29.642C140.152 30.37 140.341 31.196 140.341 32.12C140.341 32.386 140.334 32.631 140.32 32.855C140.306 33.079 140.285 33.268 140.257 33.422H132.571C132.669 34.402 132.984 35.151 133.516 35.669C134.062 36.173 134.762 36.425 135.616 36.425C136.316 36.425 136.883 36.292 137.317 36.026C137.751 35.76 138.094 35.389 138.346 34.913L140.131 35.753C139.767 36.523 139.186 37.125 138.388 37.559C137.604 37.993 136.694 38.21 135.658 38.21ZM135.49 29.075C134.72 29.075 134.083 29.299 133.579 29.747C133.089 30.195 132.774 30.846 132.634 31.7H138.157C138.101 30.86 137.835 30.216 137.359 29.768C136.883 29.306 136.26 29.075 135.49 29.075ZM147.211 38.21C146.343 38.21 145.559 37.993 144.859 37.559C144.159 37.125 143.599 36.502 143.179 35.69C142.773 34.878 142.57 33.905 142.57 32.771C142.57 31.595 142.787 30.601 143.221 29.789C143.655 28.977 144.236 28.361 144.964 27.941C145.692 27.507 146.49 27.29 147.358 27.29C148.114 27.29 148.772 27.472 149.332 27.836C149.906 28.186 150.333 28.655 150.613 29.243V22.775H152.86V38H150.865L150.739 36.005C150.459 36.705 149.997 37.251 149.353 37.643C148.709 38.021 147.995 38.21 147.211 38.21ZM147.694 36.404C148.576 36.404 149.283 36.068 149.815 35.396C150.347 34.724 150.613 33.8 150.613 32.624C150.613 31.532 150.347 30.678 149.815 30.062C149.297 29.432 148.618 29.117 147.778 29.117C146.84 29.117 146.112 29.439 145.594 30.083C145.076 30.727 144.817 31.616 144.817 32.75C144.817 33.884 145.069 34.78 145.573 35.438C146.077 36.082 146.784 36.404 147.694 36.404Z" fill="white"/>
</svg>
